[img]http://img100.imageshack.us/img100/1623/bluraym.jpg[/img]
[img]http://img24.imageshack.us/img24/7453/infohr.png[/img]
General

Complete name                    : Captain America The First Avenger 2011 BRRip Eng-Hindi [~HFR~]
Format                           : Matroska
Format version                   : Version 2
File size                        : 521 MiB
Duration                         : 2h 4mn

Video
ID                               : 1
Format                           : AVC
Format/Info                      : Advanced Video Codec
Format profile                   : High@L3.0
Format settings, CABAC           : Yes
Format settings, ReFrames        : 4 frames
Muxing mode                      : Header stripping
Codec ID                         : V_MPEG4/ISO/AVC
Duration                         : 2h 4mn
Bit rate                         : 394 Kbps
Width                            : 720 pixels
Height                           : 306 pixels
Display aspect ratio             : 2.35:1
Frame rate mode                  : Variable
Frame rate                       : 23.976 fps
Color space                      : YUV
Chroma subsampling               : 4:2:0
Bit depth                        : 8 bits
Scan type                        : Progressive
Bits/(Pixel*Frame)               : 0.075
Title                            : [~HFR~]
Language                         : English

Audio #1
ID                               : 2
Format                           : MPEG Audio
Format version                   : Version 2
Format profile                   : Layer 3
Mode                             : Joint stereo
Mode extension                   : MS Stereo
Muxing mode                      : Header stripping
Codec ID                         : A_MPEG/L3
Codec ID/Hint                    : MP3
Duration                         : 2h 4mn
Bit rate mode                    : Constant
Bit rate                         : 64.0 Kbps
Channel(s)                       : 2 channels
Sampling rate                    : 22.05 KHz
Compression mode                 : Lossy
Delay relative to video          : 2s 458ms
Stream size                      : 56.9 MiB (11%)
Title                            : [~HFR~]
Writing library                  : LAME3.98.2
Language                         : Hindi
Hindi Audio Source               : Phantom

Audio #2
ID                               : 3
Format                           : AC-3
Format/Info                      : Audio Coding 3
Mode extension                   : CM (complete main)
Muxing mode                      : Header stripping
Codec ID                         : A_AC3
Duration                         : 2h 4mn
Bit rate mode                    : Constant
Bit rate                         : 128 Kbps
Channel(s)                       : 2 channels
Channel positions                : Front: L R
Sampling rate                    : 48.0 KHz
Bit depth                        : 16 bits
Compression mode                 : Lossy
Delay relative to video          : -42ms
Stream size                      : 114 MiB (22%)
Title                            : [~HFR~]
Language                         : English

Text
ID                               : 4
Format                           : UTF-8
Codec ID                         : S_TEXT/UTF8
Codec ID/Info                    : UTF-8 Plain Text
Title                            : [~HFR~]
Language                         : English

[img]http://img4.imageshack.us/img4/959/plotbi.png[/img]
It is 1942, America has entered World War II, and sickly but determined Steve Rogers is frustrated at being rejected yet again for military service. Everything changes when Dr. Erksine recruits him for the secret Project Rebirth. Proving his extraordinary courage, wits and conscience, Rogers undergoes the experiment and his weak body is suddenly enhanced into the maximum human potential. When Dr. Erksine is then immediately assassinated by an agent of Nazi Germany's head of its secret HYDRA research department, Johann Schmidt aka the Red Skull, Rogers is left as a unique man who is initially misused as a propaganda mascot. However, when his comrades need him, Rogers goes on a successful adventure that truly makes him Captain America and his war against Schmidt begins. 
[img]http://img546.imageshack.us/img546/3949/imdblogoy.png[/img]
[url]http://www.imdb.com/title/tt0458339/[/url]

[img]http://img696.imageshack.us/img696/9545/castec.png[/img]
Director:
Joe Johnston
Writers:
Christopher Markus (screenplay), Stephen McFeely (screenplay), and 2 more credits »
Stars:
Chris Evans, Hugo Weaving and Samuel L. Jackson 
[img]http://img846.imageshack.us/img846/4092/boxx.jpg[/img]
Budget:
$140,000,000 (estimated)
Opening Weekend:
$65,058,524 (USA) (24 July 2011) (3715 Screens)
Gross:
$176,423,395 (USA) (23 October 2011) 
[img]http://img31.imageshack.us/img31/640/screendta.png[/img]
[img]http://img249.imageshack.us/img249/8544/vlcsnap2011103114h12m53.png[/img]
[img]http://img41.imageshack.us/img41/5956/vlcsnap2011103114h13m09.png[/img]
[img]http://img689.imageshack.us/img689/2531/vlcsnap2011103114h13m15.png[/img]
[img]http://img810.imageshack.us/img810/3381/vlcsnap2011103114h13m27.png[/img]
[img]http://img707.imageshack.us/img707/7486/vlcsnap2011103114h13m39.png[/img]
[img]http://img338.imageshack.us/img338/5377/captainamericathefirstaw.jpg[/img]

[img]http://img14.imageshack.us/img14/6105/hiee.gif[/img]
[img]http://img98.imageshack.us/img98/4050/seedv.gif[/img]
[img]http://img855.imageshack.us/img855/6715/91555204.png[/img]